<svg version="1.1" id="Layer_1" xmlns="http://www.w3.org/2000/svg" xmlns:xlink="http://www.w3.org/1999/xlink" x="0px" y="0px"
	 width="100%" viewBox="0 0 530 530" enable-background="new 0 0 530 530" xml:space="preserve">
<path fill="none" opacity="1.000000" stroke="none" 
	d="
M531.000000,204.000000 
	C531.000000,313.307678 531.000000,422.115356 531.000000,530.961548 
	C354.400665,530.961548 177.801315,530.961548 1.100980,530.961548 
	C1.100980,354.442352 1.100980,177.884644 1.100980,1.163466 
	C177.666550,1.163466 354.333252,1.163466 531.000000,1.163466 
	C531.000000,68.531982 531.000000,136.015991 531.000000,204.000000 
M508.158966,346.624054 
	C520.230164,310.021393 523.889099,272.596527 519.122253,234.350433 
	C512.611755,182.114532 492.425659,135.666992 456.927490,96.957718 
	C393.154144,27.415560 313.794312,-0.288618 220.662445,15.175426 
	C156.166122,25.884693 103.732018,58.613285 63.994045,110.363960 
	C18.160452,170.052948 2.091291,237.785629 15.137157,311.769836 
	C26.454477,375.951294 58.710499,428.303955 110.297203,467.966614 
	C167.794250,512.173401 233.079834,528.511597 304.823059,518.043640 
	C355.482361,510.652039 399.682983,489.157928 437.565216,454.828857 
	C470.311951,425.153564 493.681732,389.221771 508.158966,346.624054 
z"/>
<path fill="#59B7FF" opacity="1.000000" stroke="none" 
	d="
M508.061707,347.007812 
	C493.681732,389.221771 470.311951,425.153564 437.565216,454.828857 
	C399.682983,489.157928 355.482361,510.652039 304.823059,518.043640 
	C233.079834,528.511597 167.794250,512.173401 110.297203,467.966614 
	C58.710499,428.303955 26.454477,375.951294 15.137157,311.769836 
	C2.091291,237.785629 18.160452,170.052948 63.994045,110.363960 
	C103.732018,58.613285 156.166122,25.884693 220.662445,15.175426 
	C313.794312,-0.288618 393.154144,27.415560 456.927490,96.957718 
	C492.425659,135.666992 512.611755,182.114532 519.122253,234.350433 
	C523.889099,272.596527 520.230164,310.021393 508.061707,347.007812 
M168.123505,463.486084 
	C170.106064,464.341827 172.115402,465.140839 174.067123,466.061890 
	C198.529922,477.606140 224.399445,484.059021 251.262024,485.761932 
	C268.141418,486.831970 285.052643,486.021912 301.921661,483.203125 
	C346.196442,475.804871 384.500580,456.569550 417.178375,426.138489 
	C437.572510,407.146576 453.407104,384.697693 465.366547,359.454407 
	C477.618042,333.594727 484.287048,306.347717 485.847870,277.917236 
	C486.749207,261.499573 485.983948,245.078156 483.075073,228.768143 
	C474.408081,180.172852 452.013367,139.041702 416.391846,105.042427 
	C411.143707,100.033310 405.393585,95.550186 399.622742,90.607002 
	C401.993561,87.657257 403.985596,84.806168 406.362854,82.324013 
	C408.831146,79.746780 408.099823,77.967445 405.526367,76.317833 
	C394.624603,69.329643 384.075684,61.688503 372.726868,55.520424 
	C344.537170,40.199326 313.881897,33.054344 282.085968,31.181402 
	C259.155060,29.830654 236.279800,31.295359 213.787704,36.604195 
	C175.383530,45.668781 141.196594,62.826084 111.397705,88.882957 
	C89.469437,108.057579 71.635567,130.373398 58.070782,156.047455 
	C44.603943,181.536148 35.431198,208.512573 32.985905,237.376099 
	C31.726164,252.245697 31.540440,267.212341 31.120319,282.142212 
	C31.030312,285.340790 32.024391,288.569855 32.553051,292.005768 
	C36.613689,292.005768 40.310768,291.682800 43.900230,292.163483 
	C45.352581,292.357941 46.939926,294.090546 47.777931,295.525085 
	C48.454876,296.683899 47.966854,298.468811 48.221802,299.936676 
	C52.806915,326.335449 61.068455,351.482910 74.462318,374.760986 
	C88.098557,398.460327 104.926117,419.689941 126.790009,436.251587 
	C139.717865,446.044373 153.857864,454.236969 168.123505,463.486084 
z"/>
<path fill="#1D8BE0" opacity="1.000000" stroke="none" 
	d="
M167.788147,463.317627 
	C153.857864,454.236969 139.717865,446.044373 126.790009,436.251587 
	C104.926117,419.689941 88.098557,398.460327 74.462318,374.760986 
	C61.068455,351.482910 52.806915,326.335449 48.221802,299.936676 
	C47.966854,298.468811 48.454876,296.683899 47.777931,295.525085 
	C46.939926,294.090546 45.352581,292.357941 43.900230,292.163483 
	C40.310768,291.682800 36.613689,292.005768 32.553051,292.005768 
	C32.024391,288.569855 31.030312,285.340790 31.120319,282.142212 
	C31.540440,267.212341 31.726164,252.245697 32.985905,237.376099 
	C35.431198,208.512573 44.603943,181.536148 58.070782,156.047455 
	C71.635567,130.373398 89.469437,108.057579 111.397705,88.882957 
	C141.196594,62.826084 175.383530,45.668781 213.787704,36.604195 
	C236.279800,31.295359 259.155060,29.830654 282.085968,31.181402 
	C313.881897,33.054344 344.537170,40.199326 372.726868,55.520424 
	C384.075684,61.688503 394.624603,69.329643 405.526367,76.317833 
	C408.099823,77.967445 408.831146,79.746780 406.362854,82.324013 
	C403.985596,84.806168 401.993561,87.657257 399.622742,90.607002 
	C405.393585,95.550186 411.143707,100.033310 416.391846,105.042427 
	C452.013367,139.041702 474.408081,180.172852 483.075073,228.768143 
	C485.983948,245.078156 486.749207,261.499573 485.847870,277.917236 
	C484.287048,306.347717 477.618042,333.594727 465.366547,359.454407 
	C453.407104,384.697693 437.572510,407.146576 417.178375,426.138489 
	C384.500580,456.569550 346.196442,475.804871 301.921661,483.203125 
	C285.052643,486.021912 268.141418,486.831970 251.262024,485.761932 
	C224.399445,484.059021 198.529922,477.606140 174.067123,466.061890 
	C172.115402,465.140839 170.106064,464.341827 167.788147,463.317627 
M267.592255,279.499939 
	C267.592255,295.588379 267.592255,311.676819 267.592255,327.608093 
	C282.714661,327.608093 297.277466,327.608093 312.170532,327.608093 
	C312.170532,289.623810 312.170532,252.030472 312.170532,214.271591 
	C318.246826,214.271591 323.981262,214.271591 330.271484,214.271591 
	C330.271484,252.249237 330.271484,289.959961 330.271484,327.734924 
	C342.081329,327.734924 353.331818,327.734924 364.697571,327.734924 
	C364.697571,284.427551 364.697571,241.385864 364.697571,198.330414 
	C298.691315,198.330414 232.989441,198.330414 167.368134,198.330414 
	C167.368134,241.704544 167.368134,284.746704 167.368134,327.702881 
	C194.831223,327.702881 221.924545,327.702881 249.651886,327.702881 
	C249.651886,289.701172 249.651886,251.992233 249.651886,214.291016 
	C255.883209,214.291016 261.473877,214.291016 267.591797,214.291016 
	C267.591797,235.885696 267.591797,257.192810 267.592255,279.499939 
z"/>
<path fill="#FFFFFF" opacity="1.000000" stroke="none" 
	d="
M267.592041,278.999939 
	C267.591797,257.192810 267.591797,235.885696 267.591797,214.291016 
	C261.473877,214.291016 255.883209,214.291016 249.651886,214.291016 
	C249.651886,251.992233 249.651886,289.701172 249.651886,327.702881 
	C221.924545,327.702881 194.831223,327.702881 167.368134,327.702881 
	C167.368134,284.746704 167.368134,241.704544 167.368134,198.330414 
	C232.989441,198.330414 298.691315,198.330414 364.697571,198.330414 
	C364.697571,241.385864 364.697571,284.427551 364.697571,327.734924 
	C353.331818,327.734924 342.081329,327.734924 330.271484,327.734924 
	C330.271484,289.959961 330.271484,252.249237 330.271484,214.271591 
	C323.981262,214.271591 318.246826,214.271591 312.170532,214.271591 
	C312.170532,252.030472 312.170532,289.623810 312.170532,327.608093 
	C297.277466,327.608093 282.714661,327.608093 267.592255,327.608093 
	C267.592255,311.676819 267.592255,295.588379 267.592041,278.999939 
z"/>
</svg>