<svg xmlns="http://www.w3.org/2000/svg" viewBox="0 0 100 100">
  <path d="M100 50 C100 77.6142 77.6144 99.9999 50.0001 99.9999 C22.3859 99.9999 0.0003 77.6142 0.0003 50 C0.0003 22.3858 22.3859 0.0001 50.0001 0.0001 C77.6144 0.0001 100 22.3858 100 50" style="fill:#58b7ff;fill-opacity:1;fill-rule:nonzero;stroke:none"/>
  <path d="M3.9216 50 C3.9216 52.2627 3.9277 52.8076 4.1548 55.0886 L7.1624 55.0831 C9.6783 76.5111 27.8961 93.1371 49.9999 93.1371 C73.824 93.1371 93.1371 73.8241 93.1371 50 C93.1371 35.9822 86.4491 23.5283 76.0918 15.6491 L78.0128 13.3846 C70.1164 7.036 60.9207 3.9217 49.9999 3.9217 C24.5516 3.9217 3.9216 24.5516 3.9216 50" style="fill:#1d8ce0;fill-opacity:1;fill-rule:nonzero;stroke:none"/>
  <path d="M69.4116 62.157 L30.5882 62.157 L30.5882 36.6668 L69.4116 36.6668 Z" style="fill:#fff;fill-opacity:1;fill-rule:nonzero;stroke:none"/>
  <path d="M50.294 62.157 L46.7646 62.157 L46.7646 39.8041 L50.294 39.8041 Z M62.5551 62.157 L59.0257 62.157 L59.0257 39.8041 L62.5551 39.8041 Z" style="fill:#1d8ce0;fill-opacity:1;fill-rule:nonzero;stroke:none"/>
</svg>
